<?xml version="1.0" ?><!DOCTYPE svg  PUBLIC '-//W3C//DTD SVG 1.1//EN'  'http://www.w3.org/Graphics/SVG/1.1/DTD/svg11.dtd'><svg height="512px" style="enable-background:new 0 0 512 512;" version="1.1" viewBox="0 0 512 512" width="512px" xml:space="preserve" xmlns="http://www.w3.org/2000/svg" xmlns:xlink="http://www.w3.org/1999/xlink"><g id="email_x2C__mail__x2C__letter__x2C__internet__x2C__envelope__x2C__chat__x2C___1__x2C_"><g><path d="M396.162,265.373c-43.871,0-79.372,35.516-79.372,79.372    c0,43.872,35.501,79.387,79.372,79.387c43.872,0,79.372-35.515,79.372-79.387C475.534,300.889,440.034,265.373,396.162,265.373    L396.162,265.373z" style="fill-rule:evenodd;clip-rule:evenodd;fill:#F36360;"/><path d="M396.162,272.075c-20.077,0-38.228,8.099-51.359,21.23c-13.131,13.212-21.324,31.363-21.324,51.439    c0,20.091,8.193,38.241,21.324,51.359c13.132,13.132,31.282,21.325,51.359,21.325s38.228-8.193,51.44-21.325    c13.132-13.118,21.244-31.269,21.244-51.359c0-20.076-8.112-38.228-21.244-51.439C434.39,280.174,416.239,272.075,396.162,272.075    L396.162,272.075z M335.28,283.877c15.601-15.586,37.087-25.191,60.882-25.191c23.794,0,45.281,9.605,60.868,25.191    c15.588,15.601,25.192,37.089,25.192,60.868c0,23.794-9.604,45.282-25.192,60.883c-15.587,15.506-37.074,25.191-60.868,25.191    c-23.795,0-45.281-9.686-60.882-25.191c-15.492-15.601-25.179-37.184-25.179-60.883    C310.102,320.966,319.788,299.478,335.28,283.877L335.28,283.877z" style="fill:#4A374F;"/><path d="M438.446,254.101V123.193c0-9.781-3.962-18.585-10.405-25.015    l-131.693,131.79l-25.721,25.639c-9.164,9.157-21.142,13.918-33.209,13.918c-11.985,0-23.963-4.761-33.215-13.918l-25.632-25.639    l-54.975,54.615l-76.727,76.292c6.342,6.335,15.241,10.391,24.927,10.391h227.901c-2.292-8.45-3.514-17.35-3.514-26.521    c0-27.659,11.179-52.675,29.329-70.73c18.056-18.055,43.085-29.247,70.649-29.247    C411.315,244.768,425.586,248.119,438.446,254.101L438.446,254.101z" style="fill-rule:evenodd;clip-rule:evenodd;fill:#FBCD64;"/><path d="M123.596,284.583l54.975-54.615L46.781,98.178    c-6.342,6.43-10.31,15.234-10.31,25.015v212.749c0,9.686,3.968,18.585,10.31,24.934L123.596,284.583z" style="fill-rule:evenodd;clip-rule:evenodd;fill:#FBCD64;"/><path d="M178.571,229.968l25.632,25.639    c9.252,9.157,21.23,13.918,33.215,13.918c12.067,0,24.045-4.761,33.209-13.918l25.721-25.639l131.693-131.79    c-6.335-6.349-15.329-10.31-24.92-10.31H71.796c-9.686,0-18.585,3.961-24.927,10.31L178.571,229.968z" style="fill-rule:evenodd;clip-rule:evenodd;fill:#FBCD64;"/><path d="M301.814,377.968H71.796c-5.636,0-11.096-1.153-16.028-3.269c-5.114-2.104-9.78-5.196-13.66-9.063    l9.428-9.521c2.645,2.645,5.813,4.843,9.34,6.253c3.351,1.411,7.047,2.211,10.92,2.211H298.11    C299.087,369.15,300.309,373.653,301.814,377.968L301.814,377.968z" style="fill:#4A374F;"/><path d="M51.536,102.939c-2.639,2.632-4.755,5.806-6.254,9.334c-1.322,3.255-2.116,6.959-2.116,10.92    v212.749c0,3.88,0.794,7.584,2.116,10.92c0.617,1.412,1.323,2.741,2.116,4.057L173.81,225.206l9.428,9.428L46.781,370.303    l-4.673-4.667c-3.873-3.879-7.041-8.464-9.157-13.659c-2.028-4.938-3.174-10.392-3.174-16.035V123.193    c0-5.63,1.146-11.097,3.174-16.116c2.116-5.115,5.284-9.781,9.157-13.661L51.536,102.939z" style="fill:#4A374F;"/><path d="M301.108,225.206L338.549,263l-0.176,0.176h-0.081l-0.096,0.095l-0.177,0.082l-0.176,0.177    l-0.176,0.095l-0.177,0.177l-0.177,0.081l0,0l-0.176,0.095l-0.177,0.177l-0.176,0.081l-0.178,0.176l-0.081,0.096l-0.189,0.081    v0.095l-0.163,0.082l-0.189,0.095l-0.163,0.162l-0.189,0.096l-0.163,0.177h-0.095l-0.095,0.08l-0.163,0.176l-0.19,0.097    l-0.081,0.177l-0.882,0.609l-0.176,0.096l-0.177,0.177l-0.095,0.081l0,0l-0.163,0.176l-0.189,0.095l-0.163,0.177l-0.176,0.082    l-0.178,0.176l-0.081,0.095l0,0l-0.189,0.177l-0.163,0.081l-0.189,0.176l-0.163,0.096l-0.624,0.61l-0.177,0.095l-0.176,0.177    l-0.082,0.081h-0.095l-0.095,0.177l-0.162,0.095l-0.19,0.176l-0.163,0.178l-0.095,0.081l-0.176,0.095v0.081l-0.177,0.095    l-0.177,0.176l-0.176,0.082l-0.095,0.177l-0.163,0.177h-0.095l-0.096,0.095l-0.163,0.176l-0.095,0.081l-0.176,0.178l-0.177,0.176    l-0.177,0.095l-36.464-36.831L301.108,225.206z M431.759,251.279V123.193c0-3.961-0.801-7.665-2.212-10.92    c-1.41-3.528-3.513-6.702-6.253-9.334l9.522-9.523c3.866,3.88,6.945,8.546,9.144,13.661c2.035,5.019,3.174,10.486,3.174,16.116    v134.339l-0.258-0.176l-0.176-0.081l-0.177-0.081l-0.177-0.097l-0.271-0.175l-0.163-0.082h-0.096l-0.095-0.095l-0.162-0.081    l-0.271-0.19l-0.176-0.082l-0.177-0.081l-0.163-0.095h-0.108l-0.163-0.176l-0.189-0.081l-0.258-0.095l-0.177-0.082l-0.162-0.095    l0,0l-0.272-0.176l-0.176-0.082l-0.176-0.095l-0.271-0.081l-0.163-0.095l0,0l-0.19-0.081l-0.257-0.176l-0.176-0.095l-0.178-0.082    l-0.258-0.095h-0.095l-0.095-0.081l-0.162-0.095l-0.272-0.082l-0.176-0.095l-0.176-0.176h-0.177l-0.096-0.081l-0.162-0.095    l-0.271-0.082l-0.176-0.095l-0.177-0.081l-0.271-0.095l0,0l-0.787-0.353l-0.271-0.081v-0.095h-0.163l-0.19-0.176l-0.257-0.082    l-0.177-0.095l-0.271-0.082h-0.081l-0.082-0.095l-0.271-0.082l-0.163-0.095l-0.19-0.082l-0.271-0.095h-0.163v-0.081l-0.271-0.095    l-0.163-0.082l-0.271-0.096l-0.177-0.081l-0.177-0.095h-0.081l-0.189-0.081h-0.163l-0.271-0.095l-0.177-0.082L431.759,251.279z" style="fill:#4A374F;"/><path d="M432.816,102.939L275.375,260.354c-5.101,5.114-11.091,9.075-17.432,11.721    c-6.607,2.727-13.566,4.138-20.525,4.138c-6.958,0-13.924-1.411-20.443-4.138c-6.342-2.646-12.331-6.606-17.438-11.721    L37.353,98.178l4.755-4.667c3.88-3.88,8.546-7.054,13.66-9.17C60.7,82.32,66.16,81.18,71.796,81.18h331.325    c5.63,0,11.002,1.14,16.035,3.161c5.113,2.116,9.78,5.29,13.66,9.17l4.748,4.667L432.816,102.939z M265.96,250.845L418.003,98.788    c-1.221-0.787-2.55-1.492-3.961-2.102c-3.337-1.33-7.054-2.117-10.921-2.117H71.796c-3.873,0-7.569,0.787-10.92,2.117    c-1.411,0.61-2.734,1.315-4.056,2.102l152.137,152.057c3.88,3.962,8.37,6.864,13.132,8.899c4.931,2.021,10.126,3.08,15.329,3.08    c5.284,0,10.479-1.059,15.411-3.08C257.591,257.709,261.992,254.807,265.96,250.845L265.96,250.845z" style="fill:#4A374F;"/><path d="M389.462,378.755l0.095-61.398l-12.17,8.981c-2.983,2.21-7.135,1.587-9.333-1.411    c-2.197-2.984-1.572-7.135,1.411-9.333l22.736-16.917c1.14-0.786,2.469-1.234,3.961-1.234c3.69,0,6.702,2.917,6.702,6.607v74.705    h17.444c3.69,0,6.594,2.903,6.594,6.606c0,3.702-2.903,6.7-6.594,6.7h-48.197c-3.705,0-6.688-2.998-6.688-6.7    c0-3.703,2.982-6.606,6.688-6.606H389.462z" style="fill:#4A374F;"/></g></g><g id="Layer_1"/></svg>